<svg xmlns="http://www.w3.org/2000/svg" viewBox="0 0 1000 208">
    <g fill="none" fill-rule="evenodd">
        <g fill="#D81F26">
            <path d="M169.913 85.093c-26.023 0-47.118-21.095-47.118-47.118a46.888 46.888 0 016.927-24.597 99.507 99.507 0 00-30.142-4.65C44.583 8.728 0 53.312 0 108.308c0 54.997 44.583 99.58 99.58 99.58 54.996 0 99.58-44.583 99.58-99.58a99.538 99.538 0 00-4.649-30.142 46.891 46.891 0 01-24.598 6.927"/>
            <path d="M206.888 37.975c0 20.42-16.554 36.975-36.975 36.975-20.42 0-36.974-16.554-36.974-36.975C132.939 17.555 149.493 1 169.913 1c20.42 0 36.975 16.555 36.975 36.975"/>
        </g>
        <path fill="#000" fill-rule="nonzero"
              d="M279.215 182h-5.22v-19.035h-9.067V182h-5.221v-23.246h19.508V182zm3.49-11.838c0-3.466.949-6.306 2.847-8.518 1.898-2.213 4.494-3.32 7.788-3.32 3.337 0 5.955 1.107 7.852 3.32 1.898 2.212 2.847 5.052 2.847 8.518v.451c0 3.495-.949 6.342-2.847 8.54-1.897 2.199-4.5 3.298-7.81 3.298-3.322 0-5.932-1.103-7.83-3.308-1.898-2.206-2.847-5.05-2.847-8.53v-.45zm5.22.451c0 2.278.445 4.125 1.333 5.543.888 1.418 2.263 2.127 4.125 2.127 1.819 0 3.183-.712 4.093-2.137.91-1.426 1.364-3.27 1.364-5.533v-.45c0-2.221-.455-4.05-1.364-5.49-.91-1.44-2.288-2.16-4.136-2.16-1.82 0-3.176.72-4.071 2.16-.896 1.44-1.343 3.269-1.343 5.49v.45zm27.532 2.192h-2.363V182h-5.2v-23.246h5.2v9.281h1.826l6.896-9.281h6.467l-8.765 11.086 9.474 12.16h-6.789l-6.746-9.195zm23.406-.13l.516 2.321h.129l5.092-16.242h5.714l-9.625 26.77c-.615 1.618-1.482 3-2.6 4.146-1.116 1.146-2.699 1.719-4.747 1.719-.43 0-.892-.043-1.386-.13a20.07 20.07 0 01-1.429-.3l.58-4.04.795.065c.344.029.602.043.774.043.945 0 1.7-.322 2.266-.966a8.216 8.216 0 001.386-2.235l.86-2.105-8.444-22.967h5.693l4.426 13.922zM371.916 182h-5.22v-19.035h-9.067V182h-5.22v-23.246h19.507V182zm12.32-9.195h-2.363V182h-5.2v-23.246h5.2v9.281h1.826l6.897-9.281h6.466l-8.765 11.086L397.77 182h-6.789l-6.746-9.195zM413.937 182c-.186-.587-.34-1.16-.461-1.719a12.287 12.287 0 01-.247-1.676c-.702 1.089-1.64 2.002-2.815 2.74-1.174.737-2.485 1.106-3.932 1.106-2.42 0-4.279-.623-5.575-1.869-1.296-1.246-1.944-2.958-1.944-5.135 0-2.248.888-4 2.664-5.253 1.776-1.253 4.275-1.88 7.498-1.88h4.06v-2.04c0-1.218-.354-2.17-1.063-2.858-.709-.687-1.737-1.031-3.083-1.031-1.189 0-2.134.283-2.836.848-.702.566-1.053 1.3-1.053 2.203l-5.027.021-.021-.129c-.1-1.833.72-3.459 2.46-4.877 1.74-1.418 4.006-2.127 6.8-2.127 2.706 0 4.89.688 6.552 2.063 1.662 1.375 2.492 3.351 2.492 5.93v10.333c0 .96.065 1.88.194 2.761.129.881.336 1.744.623 2.589h-5.286zm-6.38-3.738c1.303 0 2.481-.33 3.534-.989 1.053-.658 1.75-1.41 2.095-2.255v-3.438h-4.147c-1.518 0-2.707.376-3.566 1.128-.86.752-1.29 1.636-1.29 2.653 0 .888.29 1.594.87 2.117.58.522 1.415.784 2.504.784zm28.627-7.455h-12.676v-4.211h12.676v4.21zM460.879 182h-5.22v-19.035h-9.067V182h-5.22v-23.246h19.507V182zm24.824-10.85c0 3.38-.795 6.11-2.385 8.186-1.59 2.077-3.802 3.115-6.638 3.115-1.318 0-2.485-.236-3.502-.709a7.206 7.206 0 01-2.621-2.084v11.28h-5.221v-32.184h4.404l.516 2.922c.745-1.089 1.643-1.92 2.696-2.492 1.053-.573 2.274-.86 3.663-.86 2.865 0 5.096 1.135 6.693 3.405 1.597 2.27 2.395 5.26 2.395 8.97v.451zm-5.2-.45c0-2.378-.447-4.323-1.342-5.834-.895-1.51-2.23-2.266-4.007-2.266-1.088 0-2.012.232-2.771.698-.76.465-1.368 1.113-1.826 1.944v10.506c.458.816 1.067 1.443 1.826 1.88.759.437 1.697.655 2.814.655 1.776 0 3.105-.655 3.986-1.966.88-1.31 1.32-3.032 1.32-5.167v-.45zm7.788-.538c0-3.466.949-6.306 2.847-8.518 1.897-2.213 4.493-3.32 7.788-3.32 3.337 0 5.955 1.107 7.852 3.32 1.898 2.212 2.847 5.052 2.847 8.518v.451c0 3.495-.949 6.342-2.847 8.54-1.897 2.199-4.5 3.298-7.81 3.298-3.322 0-5.933-1.103-7.83-3.308-1.898-2.206-2.847-5.05-2.847-8.53v-.45zm5.22.451c0 2.278.445 4.125 1.333 5.543.888 1.418 2.263 2.127 4.125 2.127 1.819 0 3.183-.712 4.093-2.137.909-1.426 1.364-3.27 1.364-5.533v-.45c0-2.221-.455-4.05-1.364-5.49-.91-1.44-2.289-2.16-4.136-2.16-1.82 0-3.176.72-4.072 2.16-.895 1.44-1.342 3.269-1.342 5.49v.45zm19.884 7.219l.773-.021c1.117 0 1.923-.785 2.417-2.353.494-1.568.841-4.078 1.042-7.53l.516-9.174h16.285v19.078h3.136v11.86h-5.199V182h-15.19v7.691h-5.22v-11.859h1.44zm9.431-9.904c-.129 2.248-.33 4.182-.601 5.8-.273 1.619-.666 2.987-1.182 4.104h8.164v-14.588h-6.123l-.258 4.684zM554.783 182c-.186-.587-.34-1.16-.462-1.719a12.287 12.287 0 01-.247-1.676c-.702 1.089-1.64 2.002-2.814 2.74-1.175.737-2.485 1.106-3.932 1.106-2.42 0-4.279-.623-5.575-1.869-1.296-1.246-1.944-2.958-1.944-5.135 0-2.248.888-4 2.664-5.253 1.776-1.253 4.275-1.88 7.498-1.88h4.06v-2.04c0-1.218-.354-2.17-1.063-2.858-.71-.687-1.737-1.031-3.083-1.031-1.189 0-2.134.283-2.836.848-.702.566-1.053 1.3-1.053 2.203l-5.027.021-.022-.129c-.1-1.833.72-3.459 2.46-4.877 1.74-1.418 4.007-2.127 6.8-2.127 2.707 0 4.891.688 6.553 2.063 1.661 1.375 2.492 3.351 2.492 5.93v10.333c0 .96.064 1.88.193 2.761.13.881.337 1.744.623 2.589h-5.285zm-6.38-3.738c1.303 0 2.48-.33 3.534-.989 1.052-.658 1.75-1.41 2.094-2.255v-3.438h-4.146c-1.518 0-2.707.376-3.567 1.128-.859.752-1.289 1.636-1.289 2.653 0 .888.29 1.594.87 2.117.58.522 1.415.784 2.503.784zm33.396-5.608h-1.504V182h-5.2v-9.346h-1.503L568.049 182h-6.617l8.12-12.354-7.562-10.892h6.446l5.478 9.13h1.182v-9.13h5.199v9.13h1.203l5.479-9.13h6.466l-7.584 10.892L593.98 182h-6.638l-5.543-9.346zM610.232 182c-.186-.587-.34-1.16-.461-1.719a12.286 12.286 0 01-.248-1.676c-.701 1.089-1.64 2.002-2.814 2.74-1.175.737-2.485 1.106-3.932 1.106-2.42 0-4.279-.623-5.575-1.869-1.296-1.246-1.944-2.958-1.944-5.135 0-2.248.888-4 2.664-5.253 1.776-1.253 4.275-1.88 7.498-1.88h4.06v-2.04c0-1.218-.354-2.17-1.063-2.858-.709-.687-1.737-1.031-3.083-1.031-1.189 0-2.134.283-2.836.848-.702.566-1.053 1.3-1.053 2.203l-5.027.021-.022-.129c-.1-1.833.72-3.459 2.46-4.877 1.74-1.418 4.007-2.127 6.8-2.127 2.707 0 4.892.688 6.553 2.063 1.661 1.375 2.492 3.351 2.492 5.93v10.333c0 .96.065 1.88.194 2.761.128.881.336 1.744.623 2.589h-5.286zm-6.38-3.738c1.303 0 2.481-.33 3.534-.989 1.052-.658 1.75-1.41 2.094-2.255v-3.438h-4.146c-1.518 0-2.707.376-3.566 1.128-.86.752-1.29 1.636-1.29 2.653 0 .888.29 1.594.87 2.117.58.522 1.415.784 2.504.784zm34.738.021c1.189 0 2.195-.372 3.018-1.117.824-.745 1.236-1.69 1.236-2.836h4.726l.043.129c.058 2.177-.805 4.053-2.589 5.629-1.783 1.575-3.928 2.363-6.434 2.363-3.352 0-5.937-1.106-7.756-3.32-1.819-2.212-2.729-5.001-2.729-8.367v-.752c0-3.352.91-6.138 2.729-8.358 1.819-2.22 4.397-3.33 7.734-3.33 2.707 0 4.906.813 6.596 2.439 1.69 1.625 2.507 3.691 2.45 6.198l-.044.129h-4.726c0-1.275-.394-2.356-1.182-3.244-.788-.888-1.819-1.332-3.094-1.332-1.862 0-3.2.72-4.017 2.159-.817 1.44-1.225 3.219-1.225 5.339v.752c0 2.162.405 3.956 1.214 5.382.81 1.425 2.16 2.137 4.05 2.137zm21.88 0c1.19 0 2.196-.372 3.02-1.117.823-.745 1.235-1.69 1.235-2.836h4.726l.043.129c.057 2.177-.806 4.053-2.589 5.629-1.783 1.575-3.928 2.363-6.434 2.363-3.352 0-5.937-1.106-7.756-3.32-1.82-2.212-2.729-5.001-2.729-8.367v-.752c0-3.352.91-6.138 2.729-8.358 1.819-2.22 4.397-3.33 7.734-3.33 2.707 0 4.906.813 6.596 2.439 1.69 1.625 2.506 3.691 2.45 6.198l-.044.129h-4.726c0-1.275-.394-2.356-1.182-3.244-.788-.888-1.819-1.332-3.094-1.332-1.862 0-3.2.72-4.017 2.159-.817 1.44-1.225 3.219-1.225 5.339v.752c0 2.162.405 3.956 1.214 5.382.81 1.425 2.16 2.137 4.05 2.137zm18.358-11.43h5.092c2.922 0 5.21.695 6.864 2.084 1.654 1.39 2.482 3.202 2.482 5.436 0 2.249-.831 4.082-2.493 5.5-1.661 1.418-3.946 2.127-6.853 2.127h-10.313v-23.246h5.221v8.1zM701.666 182h-5.22v-23.246h5.22V182zm-22.838-10.957v6.789h5.092c1.404 0 2.442-.319 3.115-.956s1.01-1.443 1.01-2.417c0-.931-.34-1.733-1.02-2.406-.68-.673-1.716-1.01-3.105-1.01h-5.092zm48.135-12.29V182h-5.2v-19.035h-6.767v5.693c0 4.584-.652 7.953-1.955 10.109-1.303 2.155-3.538 3.233-6.703 3.233h-1.117l.021-4.404h.774c1.475 0 2.47-.66 2.986-1.977.516-1.318.773-3.638.773-6.96v-9.905h17.188zm3.082 11.41c0-3.467.949-6.307 2.847-8.52 1.897-2.212 4.493-3.319 7.788-3.319 3.337 0 5.954 1.107 7.852 3.32 1.898 2.212 2.847 5.052 2.847 8.518v.451c0 3.495-.949 6.342-2.847 8.54-1.898 2.199-4.5 3.298-7.81 3.298-3.322 0-5.933-1.103-7.83-3.308-1.898-2.206-2.847-5.05-2.847-8.53v-.45zm5.22.45c0 2.278.445 4.125 1.333 5.543.888 1.418 2.263 2.127 4.125 2.127 1.819 0 3.183-.712 4.092-2.137.91-1.426 1.365-3.27 1.365-5.533v-.45c0-2.221-.455-4.05-1.365-5.49-.91-1.44-2.288-2.16-4.135-2.16-1.82 0-3.176.72-4.072 2.16-.895 1.44-1.342 3.269-1.342 5.49v.45zm27.532 2.192h-2.363V182h-5.2v-23.246h5.2v9.281h1.826l6.896-9.281h6.467l-8.766 11.086 9.475 12.16h-6.789l-6.746-9.195z"/>
        <path fill="#231F20" fill-rule="nonzero"
              d="M355.86 43.117v96.327a51.186 51.186 0 01-9.174.834l-9.174-.834V69.527l-21.545 55.044c-2.502.649-5.236.973-8.201.973-1.297 0-2.618-.093-3.962-.278-1.343-.185-2.386-.37-3.127-.556l-1.112-.139-21.545-54.905v69.917a51.186 51.186 0 01-9.174.834l-9.174-.834V43.256c0-.093.58-.208 1.737-.347 1.159-.14 2.78-.278 4.866-.417a92.974 92.974 0 0112.44 0c2.131.139 3.753.3 4.865.486l1.807.278 22.379 56.99 22.518-57.129c4.077-.649 8.34-.973 12.788-.973 1.946 0 3.985.093 6.116.278 2.131.185 3.8.37 5.004.556l1.668.139zm53.376 96.466v-4.448c-.556.463-1.39 1.02-2.502 1.668-1.112.649-3.429 1.506-6.95 2.572a37.227 37.227 0 01-10.842 1.598c-7.043 0-12.14-1.668-15.29-5.004-3.15-3.336-4.726-8.34-4.726-15.012v-1.807c0-5.745 1.992-10.193 5.977-13.344 3.985-3.15 10.564-5.282 19.738-6.394l14.595-1.668v-5.838c0-3.8-.81-6.533-2.432-8.201-1.622-1.668-4.472-2.502-8.549-2.502-3.985 0-6.765.788-8.34 2.363-1.575 1.575-2.363 4.216-2.363 7.923v1.39c-2.78.556-5.653.834-8.618.834l-8.757-.834v-1.39c0-7.413 2.039-12.904 6.116-16.471 4.077-3.568 11.398-5.352 21.962-5.352 10.471 0 17.977 1.853 22.518 5.56 4.54 3.707 6.811 9.267 6.811 16.68v47.677a51.186 51.186 0 01-9.174.834l-9.174-.834zm0-30.719l-11.259 1.529c-7.135 1.02-10.703 3.938-10.703 8.757v1.807c0 2.965.649 5.12 1.946 6.464 1.297 1.343 3.614 2.015 6.95 2.015 2.78 0 5.259-.417 7.437-1.251 2.177-.834 3.637-1.668 4.378-2.502l1.251-1.251v-15.568zm50.04-37.947v68.666a51.186 51.186 0 01-9.174.834l-9.174-.834V70.917a51.187 51.187 0 019.174-.834l9.174.834zm0-27.8V59.38a51.187 51.187 0 01-9.174.834l-9.174-.834V43.117a51.187 51.187 0 019.174-.834l9.174.834zm31.831 27.8v4.448c.556-.463 1.367-.996 2.432-1.598 1.066-.603 3.313-1.437 6.742-2.502a35.39 35.39 0 0110.564-1.599c7.506 0 12.904 1.992 16.193 5.977 3.29 3.985 4.935 9.915 4.935 17.792v46.148a49.682 49.682 0 01-9.174.834l-9.174-.834V93.435c0-4.448-.695-7.599-2.085-9.452-1.39-1.853-3.892-2.78-7.506-2.78-2.687 0-5.12.394-7.297 1.181-2.178.788-3.684 1.599-4.518 2.433l-1.112 1.251v53.515a51.186 51.186 0 01-9.174.834l-9.174-.834V70.917a51.187 51.187 0 019.174-.834l9.174.834zm73.114-27.8v84.373h36.696c.556 1.668.834 3.753.834 6.255 0 1.112-.07 2.178-.208 3.197-.14 1.02-.302 1.76-.487 2.224l-.139.834h-26.41c-5.282 0-10.379-.093-15.29-.278-4.911-.185-8.525-.37-10.842-.556l-3.475-.417V43.117a57.488 57.488 0 019.73-.834l9.591.834zm66.025 27.8v68.666a51.186 51.186 0 01-9.174.834l-9.174-.834V70.917a51.187 51.187 0 019.174-.834l9.174.834zm0-27.8V59.38a51.187 51.187 0 01-9.174.834l-9.174-.834V43.117a51.187 51.187 0 019.174-.834l9.174.834zm31.831 27.8v4.448c.556-.463 1.367-.996 2.433-1.598 1.065-.603 3.312-1.437 6.741-2.502a35.39 35.39 0 0110.564-1.599c7.506 0 12.904 1.992 16.194 5.977 3.29 3.985 4.934 9.915 4.934 17.792v46.148a49.682 49.682 0 01-9.174.834l-9.174-.834V93.435c0-4.448-.695-7.599-2.085-9.452-1.39-1.853-3.892-2.78-7.506-2.78-2.687 0-5.12.394-7.297 1.181-2.178.788-3.684 1.599-4.518 2.433l-1.112 1.251v53.515a51.186 51.186 0 01-9.174.834l-9.174-.834V70.917a51.187 51.187 0 019.174-.834l9.174.834zm94.381 68.666l-17.653-29.468-4.587 1.39v28.078a51.186 51.186 0 01-9.174.834l-9.174-.834V43.117a51.187 51.187 0 019.174-.834l9.174.834v56.156l4.587-1.529 16.263-26.827a56.69 56.69 0 019.591-.834l9.313.834-19.599 32.804 21.406 35.862a56.69 56.69 0 01-9.591.834l-9.73-.834z"/>
    </g>
</svg>
